PathFileType  4	(X/Y/Z) C:\Users\antoi\Documents\MyRepositories\mobilecap\ResultsAnalysis
DataRate	CameraRate	NumFrames	NumMarkers	Units	OrigDataRate	OrigDataStartFrame	OrigNumFrames
100.0	100.0	4	51	mm	100.0	232	265
Frame#	Time	r_knee			r_shank_antsup			r_ankle			r_calc			r_5meta			r_toe			L_knee			L_shank_antsup			L_ankle			L_calc			L_5meta			L_toe			r_sh2			r_sh3			r_sh4			L_sh2			L_sh3			r_thigh1			r_thigh2			r_thigh3			r_thigh4			r_thigh5			L_thigh1			L_thigh2			L_thigh3			L_thigh4			r.ASIS			r.PSIS			L.ASIS			L.PSIS			C7			R_Shoulder			L_Shoulder			R_Sternum			L_Sternum			R_humerus			R_elbow_med			R_elbow_lat			R_forearm			R_wrist_radius			R_wrist_ulna			L_humerus			L_elbow_med			L_elbow_lat			L_forearm			L_wrist_radius			L_wrist_ulna			R_HJC			L_HJC			R_HJC_reg			L_HJC_reg			
		X1	Y1	Z1	X2	Y2	Z2	X3	Y3	Z3	X4	Y4	Z4	X5	Y5	Z5	X6	Y6	Z6	X7	Y7	Z7	X8	Y8	Z8	X9	Y9	Z9	X10	Y10	Z10	X11	Y11	Z11	X12	Y12	Z12	X13	Y13	Z13	X14	Y14	Z14	X15	Y15	Z15	X16	Y16	Z16	X17	Y17	Z17	X18	Y18	Z18	X19	Y19	Z19	X20	Y20	Z20	X21	Y21	Z21	X22	Y22	Z22	X23	Y23	Z23	X24	Y24	Z24	X25	Y25	Z25	X26	Y26	Z26	X27	Y27	Z27	X28	Y28	Z28	X29	Y29	Z29	X30	Y30	Z30	X31	Y31	Z31	X32	Y32	Z32	X33	Y33	Z33	X34	Y34	Z34	X35	Y35	Z35	X36	Y36	Z36	X37	Y37	Z37	X38	Y38	Z38	X39	Y39	Z39	X40	Y40	Z40	X41	Y41	Z41	X42	Y42	Z42	X43	Y43	Z43	X44	Y44	Z44	X45	Y45	Z45	X46	Y46	Z46	X47	Y47	Z47	X48	Y48	Z48	X49	Y49	Z49	X50	Y50	Z50	X51	Y51	Z51	

232	2.31000000	-142.08392	1092.85842	-445.29028	-110.59658	971.79935	-448.28321	-202.23484	635.97572	-454.03181	-261.05236	620.86855	-514.34823	-94.95004	529.37347	-403.64314	-39.64290	553.08498	-461.86322	-175.01289	1089.70160	-817.21718	-122.57708	993.12570	-812.11473	-164.09112	639.74127	-817.76386	-218.81235	633.29524	-750.82466	-58.94671	518.19041	-847.02343	-6.32920	543.25988	-796.08720	-106.88168	857.72261	-462.38193	-178.17773	964.81634	-409.42419	-170.38272	848.27115	-407.13931	-208.25704	986.40988	-838.77490	-176.50061	869.03418	-861.37934	-61.79302	1331.77818	-463.00027	-55.77294	1219.76616	-474.24844	-85.71024	1189.45211	-422.15303	-150.84697	1316.22447	-394.59934	-139.78314	1199.82284	-412.57786	-107.49108	1346.23595	-831.68887	-92.54386	1210.55093	-820.37443	-216.63841	1331.45589	-856.86932	-200.68490	1194.48549	-841.31502	-98.13680	1592.18584	-487.87746	-291.24260	1661.04649	-567.47132	-101.01618	1590.07248	-750.81198	-293.15838	1662.62467	-666.85174	-115.88804	2147.47472	-638.01391	-76.96655	2149.93612	-509.86866	-66.94832	2149.51742	-748.13966	11.00961	2078.75488	-609.54562	21.30200	2071.99424	-653.22580	-25.90240	2204.27110	-417.86664	152.41943	2212.35622	-258.69158	82.57106	2273.82592	-257.38011	127.47786	2326.12935	-413.37305	177.52236	2363.89233	-511.27491	175.69382	2405.15004	-492.68989	-17.67235	2193.04024	-860.81897	141.80135	2163.13772	-1033.47888	91.73915	2235.08211	-1024.38667	150.83490	2258.23644	-870.35035	188.23474	2312.49962	-780.96718	192.02368	2355.49169	-802.64353	-191.98490	1527.75934	-520.55819	-194.25743	1516.07796	-733.61810	-183.40583	1524.63284	-524.67911	-186.75031	1527.38783	-698.17756	
233	2.32000000	-139.85872	1083.86810	-445.18788	-108.70438	962.65412	-448.24203	-202.49870	627.56709	-453.68757	-261.26405	611.97919	-514.38069	-95.24583	522.13114	-402.03024	-39.81841	545.24925	-460.70379	-173.47035	1081.02489	-818.48763	-121.17726	984.40024	-813.53764	-163.29127	630.91730	-819.69253	-218.16250	624.22073	-752.45857	-58.17362	510.41912	-850.00353	-5.57303	534.79503	-798.49218	-105.80885	848.48637	-462.79158	-175.91726	956.01348	-409.06670	-168.32166	839.13233	-407.45321	-206.81200	977.82420	-840.28965	-175.27564	860.38256	-862.81523	-61.06493	1323.23146	-464.02605	-54.48103	1211.24095	-474.79791	-83.95632	1180.90053	-422.27499	-149.47647	1307.49293	-394.82959	-138.01144	1191.06380	-412.48514	-106.89169	1337.83880	-832.03530	-91.51774	1202.12716	-821.01194	-216.06250	1322.53185	-857.23728	-199.50182	1185.78140	-842.56316	-98.24705	1583.45821	-488.68936	-291.77797	1652.09592	-567.46023	-101.44388	1581.27876	-751.14590	-293.81236	1653.30949	-666.86196	-115.92880	2138.46147	-638.24408	-77.28820	2140.71857	-510.21144	-67.27045	2140.51284	-748.05971	10.74051	2069.48819	-609.80641	21.09905	2062.75506	-653.47519	-26.57276	2195.44735	-418.45126	150.74532	2204.47058	-258.48120	81.02963	2265.90002	-258.16824	127.10399	2317.93023	-413.75909	178.12587	2355.36626	-511.48322	176.09528	2396.67343	-493.02958	-17.97867	2184.28118	-860.65111	140.82620	2154.92786	-1033.83058	90.81968	2227.04236	-1024.37621	150.59715	2249.31965	-870.19856	188.12515	2303.02951	-780.66149	191.76251	2346.08839	-802.13754	-191.98323	1518.85331	-520.82192	-194.68423	1507.09790	-733.87243	-183.54545	1516.35165	-525.06503	-187.09054	1518.46784	-698.25524	
234	2.33000000	-137.72827	1073.86289	-444.91591	-106.99746	952.47302	-448.07455	-202.97485	618.28771	-453.48950	-261.50271	602.39067	-514.24474	-95.58702	513.61498	-400.97054	-40.17615	536.45266	-459.75255	-171.85076	1071.30221	-819.76373	-119.76944	974.62368	-814.97483	-162.66680	621.44036	-821.71910	-217.75080	614.07250	-754.55232	-57.23137	502.09568	-853.48235	-4.89022	525.44770	-800.56771	-104.81081	838.39409	-462.65934	-173.90554	946.23795	-408.82540	-166.73593	828.88200	-407.83581	-205.39325	968.17646	-841.86154	-174.03538	850.84276	-864.58520	-60.37562	1313.68636	-464.93602	-53.23846	1201.71866	-475.23002	-82.17033	1171.47453	-422.22011	-148.31825	1297.77380	-395.01465	-136.22752	1181.32212	-412.38260	-106.26931	1328.42588	-832.39709	-90.51433	1192.68916	-821.52847	-215.43913	1312.68417	-857.55892	-198.33479	1176.03564	-843.51218	-98.30002	1573.53101	-489.62513	-292.34037	1642.30790	-567.36814	-101.94008	1571.42558	-751.53485	-294.38194	1643.18964	-666.94540	-115.96145	2128.40825	-638.50933	-77.62446	2130.49113	-510.60341	-67.65999	2130.38563	-748.23397	10.42684	2059.11407	-610.07250	20.85377	2052.38344	-653.72537	-27.38320	2185.68446	-419.08521	149.13881	2195.81058	-258.43486	79.46046	2257.17579	-259.04154	126.81757	2309.01214	-414.36399	178.85542	2346.11735	-511.88357	176.61329	2387.47485	-493.56735	-18.46237	2174.52366	-860.54141	139.84657	2145.95706	-1034.21517	89.86865	2217.98860	-1024.22645	150.24256	2239.56826	-870.11666	187.78734	2292.81770	-780.32922	191.21977	2335.95482	-801.58691	-192.08758	1508.91829	-521.17828	-195.29522	1497.19663	-734.22377	-183.89364	1507.04612	-525.67756	-187.43799	1508.57770	-698.51701	
235	2.34000000	-135.63991	1062.96765	-444.48896	-105.36328	941.38208	-447.73685	-203.55492	608.10717	-453.41215	-261.83820	592.12516	-514.02094	-96.12729	503.92270	-400.19179	-40.68680	526.55495	-459.03959	-170.28052	1060.46634	-820.89273	-118.30133	963.77001	-816.40118	-162.27614	611.21262	-823.61890	-217.64629	603.01019	-756.96340	-56.26859	492.39955	-856.28433	-4.29202	515.08439	-802.22673	-103.92989	827.33704	-462.33565	-172.27496	935.61523	-408.43576	-165.77383	817.96036	-407.77944	-203.90261	957.53949	-843.38551	-172.75402	840.23030	-866.36409	-59.67644	1303.20814	-465.60239	-51.93495	1191.18220	-475.60689	-80.38839	1161.11941	-422.20924	-147.23691	1287.05521	-395.18991	-134.44011	1170.70162	-412.26767	-105.70088	1317.89981	-832.55210	-89.46655	1182.22484	-821.95691	-214.75700	1301.91568	-858.03214	-197.15759	1165.19961	-844.27328	-98.50785	1562.56681	-490.20156	-292.78793	1631.50998	-567.45386	-102.43731	1560.45762	-752.00999	-294.86021	1632.21659	-667.12298	-116.02166	2117.30129	-638.72892	-77.91639	2119.43414	-511.23015	-68.12740	2119.17430	-748.73625	10.18964	2047.97050	-610.58902	20.64900	2041.21188	-654.22986	-28.24000	2175.01161	-419.92946	147.63953	2186.35850	-258.45037	77.90191	2247.66914	-259.90896	126.19422	2299.00158	-414.81513	179.09866	2335.67933	-512.23544	176.65940	2377.10685	-494.10348	-19.07263	2163.71461	-860.31308	138.89949	2135.93360	-1034.32407	88.83373	2207.97258	-1023.92629	149.66021	2228.98697	-870.13986	187.16312	2282.02177	-780.07352	190.33515	2325.22224	-801.16091	-192.36370	1497.99656	-521.50917	-195.89621	1486.26494	-734.54917	-184.30919	1496.37794	-526.09241	-187.90162	1497.60239	-698.86924	
